<?xml version="1.0" encoding="utf-8"?>
<!-- Generator: Adobe Illustrator 19.0.0, SVG Export Plug-In . SVG Version: 6.00 Build 0)  -->
<svg version="1.1" id="Capa_1" xmlns="http://www.w3.org/2000/svg" xmlns:xlink="http://www.w3.org/1999/xlink" x="0px" y="0px"
	 viewBox="-95 187 420 420" style="enable-background:new -95 187 420 420;" xml:space="preserve">
	 <style>
	 	*{
	 		fill: #ec217c
	 	}
	 </style>
<g>
	<path d="M181.1,295.9H48.9c-19.3,0-35,15.8-35,35v132.1c0,19.3,15.8,35,35,35h132.1c19.3,0,35-15.8,35-35V330.9
		C216.1,311.7,200.3,295.9,181.1,295.9z M195.1,456.1c0,11.5-9.5,21-21,21H55.9c-11.6,0-21-9.5-21-21V337.9c0-11.5,9.4-21,21-21
		h118.1c11.5,0,21,9.5,21,21L195.1,456.1L195.1,456.1z"/>
</g>
</svg>
